<?xml version="1.0" encoding="UTF-8"?><svg id="Layer_1" xmlns="http://www.w3.org/2000/svg" width="380" height="230" viewBox="0 0 380 230"><defs><style>.cls-1{stroke:#545454;}.cls-1,.cls-2,.cls-3,.cls-4,.cls-5,.cls-6{stroke-miterlimit:10;}.cls-1,.cls-5,.cls-6{stroke-width:3px;}.cls-7{fill:#fcdc83;}.cls-8,.cls-3{fill:#fff;}.cls-2{fill:#7f4040;stroke:#7c2a2a;}.cls-3{stroke:#000;}.cls-4{fill:#ffb8b8;stroke:#f78181;}.cls-5{fill:#ffe592;stroke:#ffd869;}.cls-6{fill:#f5dd8d;stroke:#daba5c;}</style></defs><path class="cls-3" d="m353.77,85.42c-6.19-12.32-12.39-24.63-18.58-36.95"/><path class="cls-5" d="m339.94,41.68c14.38,11.84,17.52,26.79,21.6,46.29.07.35,1.58,7.9-1.3,12.32-.61.94-2.54,3.91-5.52,4.24-.04,0-.07,0-.09,0-235.98-5.7-334.51-8.09-334.54-8.11-.03-.01-.03-.02-.03-.02,0-.01.02-.02.02-.02,16.02-8.56,17.07-9.07,19.16-10.11,1.38-.68,5.17-2.5,9.51-3.82,3.22-.98,5.2-1.59,7.78-1.7,5.4-.23,6.8,2,12.53,2.97,1.76.3,8.02,1.36,13.83-1.27,5.36-2.44,5.42-5.8,11.23-10.19,5.31-4.01,10.41-5.1,13.39-5.95,17.51-4.95,128.35-48.47,160.29-45.44,3.5.33,7.24,1.26,7.34,2.55.19,2.36-12.06,3.6-12.53,8.07-.26,2.48,3.01,4.84,5.62,6.37,8.77,4.67,16.56,5.96,21.17,6.37,6.39.56,13.15,1.16,19.44-2.55,5.72-3.37,4.89-6.85,9.51-8.49,7.75-2.76,17.67,5.26,21.6,8.49Z"/><path class="cls-5" d="m19.8,96.89c-1.11.78-4.44,3.51-5.18,17.84-.44,8.58.45,13.47.86,19.11,1.66,22.32-5.57,38.35-.43,40.34,2.27.88,4.87-1.73,7.78,0,2.31,1.38,3.42,4.66,3.02,7.22-.43,2.77-2.69,5.17-3.02,5.52-1.2,1.25-2.38,2.01-2.16,2.55.2.5,1.47.43,1.73.42,1.48-.06-13.19,1.04,35.86,5.1,24.24,2.01,28.14,1.76,30.48-1.24,2.3-2.96.61-5.41,3.66-9.37,3.41-4.44,9.84-6.96,15.55-6.37,4.22.44,8.14,3.4,15.99,9.34,2.3,1.74,4.53,3.52,4.53,3.52,1.43,1.18,2.49,2.13,2.75,2.37.04.04.05.05.06.06,1.55,1.4,9.32,6.49,10.8,7.22,12.62,6.17,211.3,9.32,212.75,9.78.03.01.47.17.68-.01.2-.18.06-.61.06-.69-.03-.95-.36-3.22-.06-7.8.2-3.03.67-7.18,0-8.49-2.16-4.25-2.03-4.23-5.18-7.22-4.32-4.09-7.43-5.54-9.94-9.34-2.23-3.38-.31-8.14,0-8.92,3.05-7.59,6.36-5.81,11.67-12.32.25-.31.47-.48.67-.59.41-.23.76-.34.78-.35.97-.28.13-17.65.28-24.11,0,0,.32-14.21,7.78-33.12.1-.25-.01-.84.25-.77.04.01-1.27,6.17-3.71,7.14-.55.22-1.3.42-1.3.42s-1.06.29-2.16.42c-2.74.33-158.47-5.65-203.06-5.95-4.42-.03-42.03-.21-68.7-.85-19.65-.47-24.98.07-34.13-1.27-4.44-.65-7.87-.65-14.69-.85-11.16-.33-12.92.34-14.26,1.27Z"/><path class="cls-6" d="m187.86,76.51c0,7.51,7.83,13.59,17.5,13.59s5.83-19.53,17.5-17.84c7.55,1.1-3.73-14.44-13.39-14.44s-21.6,11.18-21.6,18.69Z"/><path class="cls-6" d="m104.91,79.65c-5.79-.1-3,10.87,4.32,10.87s15.12,1.27,21.6-5.52c5.29-5.55,2.1-17.11-5.18-17.84-12.14-1.21-6.48,12.74-20.74,12.49Z"/><path class="cls-6" d="m260.65,48.71c-1.18-5.57-10.95-11.24-18.11-9.78s-3,7.89-8.37,9.74c-7.31,2.51,1.76,11.67,9.04,10.92,12.14-1.25,18.63-5.32,17.45-10.89Z"/><path class="cls-6" d="m327.23,70.6c-1.95-9.22-18.99-21.37-29.83-16.21-35.21,16.76-35.01,37.17.63,20.42,18.11-8.52,31.15,5.01,29.2-4.21Z"/><path class="cls-6" d="m49.15,92.1c.79.85,3.36-2.36,2.33-3.4s-1.78-2.49-4.52-1.67c-2.24.67-4.91,4.09-4.09,5.32,1.38,2.05,4.35-2.34,6.29-.24Z"/><path class="cls-6" d="m314.67,89.01c-3.88-.85-2.91,3.73,2.01,4.75s10.05,2.6,14.96.91c4.01-1.38,2.81-6.24-2.01-7.53-8.05-2.16-5.4,3.96-14.95,1.87Z"/><path class="cls-6" d="m243.73,88.7c1.6,2.26,2.11,4.9,5.96,5.7s10.76-.05,11.27-2.87c.58-3.2-1.91-3.31-5.7-4.32-6.31-1.68-15.12-3.57-11.53,1.5Z"/><path class="cls-6" d="m167.22,71.79c5.66-1.24,12.09-7.46,11.19-11.46-.91-4-7.66-.94-9.08-3.87-1.94-3.98-11.81,2.19-11.63,6.33.3,6.9,3.86,10.25,9.52,9.01Z"/><path class="cls-6" d="m155.86,81.96c-3.22-.28-7.06-1.45-7.99.47s.78,6.64,4.96,8.54c4.74,2.15,4.74.68,5.98-1.08,2.06-2.94,4.26-7.29-2.95-7.93Z"/><path class="cls-6" d="m40.1,105.38c-6.01-.43-10.8-.08-11.6,10.67-.8,10.75,7.13,40.29,12.84,20.48,2.32-8.04,11.95-5.74,12.75-16.49s-7.98-14.23-13.99-14.66Z"/><path class="cls-6" d="m45.66,169.61c1.09,3.25.73,6.51,5.04,8.93s12.91,4.12,14.56,1.04c1.88-3.49-1.07-4.59-5.23-7.23-6.94-4.4-16.8-10.01-14.37-2.74Z"/><path class="cls-6" d="m79.25,153.26c6.65-8.81,21.07,2.02,24.8,1.8,21.6-1.27-1.76-24-4.75-25.06-10.8-3.82-34.56,12.75-35.06,16.6-.83,6.42,8.77,14.92,15.01,6.65Z"/><path class="cls-6" d="m114.94,121.32c5.66-1.24,12.09-7.46,11.19-11.46s-7.66-.94-9.08-3.87c-1.94-3.98-11.81,2.19-11.63,6.33.3,6.9,3.86,10.25,9.52,9.01Z"/><path class="cls-6" d="m156.89,194.17c3.96-2.74,3.39-10.25-1.28-16.78s-25.35-11.31-17.87-5.31c18.68,14.98,4.63,9.86-1.15,14.32-4.83,3.72,16.34,10.51,20.31,7.77Z"/><path class="cls-6" d="m301.5,199.14c3.98,4.12,15.32,3.88,20.63-1.07,5.3-4.96-1.68-8.26,1.91-12.61,4.87-5.91-7.74-9-13.53-4.6-9.65,7.34-12.99,14.16-9,18.28Z"/><path class="cls-6" d="m300.04,154.51c8.04,5.01,25.2,6.8,26.13.02,3.03-22.02-12.88-34.49-16.11-12.33-1.64,11.26-18.06,7.3-10.02,12.31Z"/><path class="cls-6" d="m289.88,116.5c-1.73-4.08-6.61-2.64-12.91-.07-6.3,2.58-14.39,11.58-6.41,9.23,6.9-2.03,1.49,11.05,7.98,9.01,10.82-3.4,13.07-14.1,11.35-18.18Z"/><path class="cls-6" d="m253.55,186.78c-4.99,4.57,4.19,9.33,10.42,3.48s13.66-11.28,14.96-20.8c1.06-7.78-8.83-12.59-15.48-7.23-11.09,8.94,2.39,13.31-9.9,24.56Z"/><path class="cls-6" d="m202.54,187.94c-.17.86,5.6,6.39,10.71,4.17,3.56-1.55,6.36-6.68,4.94-9.99-1.38-3.24-6.63-4.29-7.86-2.47-.52.77-.01,1.57-.56,3.6-.13.47-.72,2.51-2.05,3.69-2.18,1.93-5.07.41-5.18,1Z"/><path class="cls-6" d="m190.89,110.9c-.92,1.52,5.91,7.78,7.34,6.79.8-.55-.86-2.84.43-5.52.74-1.54,1.7-1.63,1.73-2.55.07-2.57-7.32-5.31-8.28-4.06-.65.84,1.85,3.23.93,4.48-.57.77-1.81.27-2.16.85Z"/><ellipse class="cls-1" cx="166.69" cy="133.84" rx="19.01" ry="18.69"/><ellipse class="cls-8" cx="157.86" cy="130.19" rx="15.06" ry="10.25" transform="translate(-23.16 225.6) rotate(-67.31)"/><ellipse class="cls-8" cx="170.58" cy="133.84" rx="3.2" ry="1.94" transform="translate(-27.84 221.25) rotate(-61.89)"/><ellipse class="cls-8" cx="166.43" cy="140.54" rx="2.03" ry="1.16" transform="translate(-49.45 169.62) rotate(-47.85)"/><ellipse class="cls-1" cx="222.37" cy="138.11" rx="19.01" ry="18.69"/><ellipse class="cls-8" cx="213.54" cy="134.47" rx="15.06" ry="10.25" transform="translate(7.1 279.59) rotate(-67.31)"/><ellipse class="cls-8" cx="226.26" cy="138.11" rx="3.2" ry="1.94" transform="translate(-2.16 272.62) rotate(-61.89)"/><ellipse class="cls-8" cx="222.11" cy="144.82" rx="2.03" ry="1.16" transform="translate(-34.31 212.3) rotate(-47.85)"/><ellipse class="cls-4" cx="163.85" cy="153.11" rx="5.94" ry="7.03" transform="translate(-13.31 290.6) rotate(-80.87)"/><ellipse class="cls-4" cx="222.3" cy="156.77" rx="5.94" ry="7.03" transform="translate(32.25 351.39) rotate(-80.87)"/><path class="cls-2" d="m182.02,164.12c-.63,3.34,1.58,6.62,3.68,8.36,2.1,1.74,4.4,2.2,5.57,2.34,4.6.53,11.51-1.71,12.45-6.88.88-4.86-3.26-9.65-9.25-10.7-5.26-.92-11.56,2.12-12.45,6.88Z"/><path class="cls-4" d="m186.57,170.57c2.9-4.17,6.91-4.03,6.91-4.03.2,0,1.47.02,2.98.82.82.44,1.35.91,1.78,1.3.72.66,2.64,2.4,2.16,3.4-.08.17-.48.39-1.3.85-.52.29-1.02.57-1.73.85-.19.08-.66.28-1.3.42-.97.23-1.83.42-3.02.42-1.41,0-2.46-.27-3.02-.42-.59-.16-1.02-.32-1.3-.42-1.09-.41-1.59-.76-1.73-.85-.5-.35-.76-.52-.86-.85-.04-.11-.18-.61.43-1.49Z"/><path class="cls-7" d="m56.95,83.73c.23-.41,4.56,2.79,11.67,3.82,8.02,1.16,13.71-1.29,13.83-.85.13.5-6.86,4.38-14.69,2.97-6.48-1.16-11.05-5.5-10.8-5.95Z"/><path class="cls-7" d="m264.98,25.76c.2.34-5.12,2.17-5.62,5.95-.42,3.17,2.82,5.76,2.59,5.95-.27.21-5.37-2.69-4.75-6.79.68-4.53,7.56-5.47,7.78-5.1Z"/><path class="cls-7" d="m337.57,169.72c.29.04-1.02,3.41.43,7.22,1.76,4.62,6.29,6.44,6.05,6.79-.24.36-5.41-.94-7.34-5.1-1.97-4.22.52-8.97.86-8.92Z"/><path class="cls-7" d="m19.15,171.42c0-.3,7.12-2.65,9.94.85,2.37,2.94.15,8.1-.43,8.07-.54-.03.57-4.62-2.16-7.22-2.7-2.58-7.34-1.46-7.34-1.7Z"/><path class="cls-7" d="m353.55,93.28c-.7,0-.37-16.39-7.78-31.43-5.04-10.22-19.37-20.74-19.01-21.23.4-.55,17.67,10.41,22.9,21.23,6.83,14.13,4.61,31.42,3.89,31.43Z"/><path class="cls-7" d="m354.42,108.14c.56.18-2.68,7.55-3.89,19.11-1.56,14.95,1.52,24.94.86,25.06-.71.12-5.42-11.14-3.89-24.63,1.26-11.1,6.3-19.74,6.91-19.53Z"/><path class="cls-7" d="m86.12,191.38c.46.07.1-6.85,5.18-11.89,3.6-3.58,7.93-4.22,7.78-4.67-.17-.5-5.76-.43-9.51,2.97-5.25,4.78-3.97,13.51-3.46,13.59Z"/></svg>