<?xml version="1.0" encoding="UTF-8"?><svg id="Layer_1" xmlns="http://www.w3.org/2000/svg" width="875" height="850" viewBox="0 0 875 850"><defs><style>.cls-1{stroke:#545454;}.cls-1,.cls-2,.cls-3,.cls-4,.cls-5,.cls-6,.cls-7,.cls-8,.cls-9,.cls-10,.cls-11,.cls-12{stroke-miterlimit:10;}.cls-13{fill:#fff;}.cls-14{fill:#fc8b8b;}.cls-15{fill:#d3d3d3;}.cls-16{fill:#89b3f7;}.cls-2{stroke-width:2px;}.cls-2,.cls-10{fill:#e0e0e0;stroke:#b7b7b7;}.cls-3{fill:#ffe592;stroke:#ffc431;}.cls-3,.cls-4{stroke-width:.5px;}.cls-4{fill:#f5dd8d;stroke:#daba5c;}.cls-5{fill:#004ebf;stroke:#01326d;}.cls-6{fill:#003b75;stroke:#002c60;}.cls-7{fill:#ffb8b8;stroke:#f78181;}.cls-8{fill:#ff9494;stroke:#d37a7a;}.cls-9{fill:#ffdcdc;stroke:#ffb8b8;}.cls-11{fill:#a9c9a6;stroke:#93ad90;}.cls-12{fill:#94b8ff;stroke:#3786f7;}</style></defs><path class="cls-10" d="m669.32,577.68c79.91-104.96,29.54-60.43,51.24-165.9,24.69-51.57,69.71-98.54,126.99-119.76,22.49-10.07,32.89,3.71,17.42,20.62-17.22,13.71-48.42,13.5-63.89,30.09-48.66,33.76-55.65,102.81-44.64,157.4,19.26,60.98-151.2,217.27-87.12,77.55Z"/><path class="cls-10" d="m565.95,255.35c-113.52-103.66,124.61-320.37,228.69-229.42,152.51,112.19-133.83,397.67-228.69,229.42Z"/><path class="cls-10" d="m274.26,252.74C388.8,147.29,144.66-72.39,41,26.73c-139.68,114.7,140.5,392.28,233.27,226.01Z"/><path class="cls-10" d="m489.69,778.58C1.45,892.83,97.12,67.27,482.04,125.67c216.2,99.76,303.88,588.58,7.65,652.91Z"/><path class="cls-9" d="m595.86,230.04c-11.4-13.68-22.59-25.41-20.44-37.74,12-25.55,52.12-71.35,71.63-96.04,52.33-54.47,119.36,10.96,126.04,60.04.76,44.49-64.48,58.82-101.35,74.33-53.18,14.8-51.55,33.62-75.88-.59Z"/><path class="cls-9" d="m243.05,230.44c10.8-14.66,26.88-24.35,23.46-37.33-13.67-25.6-51.79-72.57-71.73-98.12-52.62-55.45-120.66,12.29-128.53,61.08-1.94,44.97,63.5,59.51,100.31,75.12,53.53,15.17,51.37,33.71,76.5-.75Z"/><path class="cls-12" d="m154.65,565.63c-3.1-93.51,288.86-105.2,89.1-184.39-41.38-9.25-86.61-51.06-46.93-70.77,72.37,13.62,108.97,97.57,177,119.77,60.83,24.34,99.63-3.84,136.87-38.5,23.2-25.28,141.94-130.39,144.12-52.32-29.21,53.63-245.09,75.39-67.46,137.69,111.52,30.99,106.01,83.94,64.25,182.18-110.89,228.28-466.38,162.72-496.96-93.65Z"/><path class="cls-5" d="m331.53,506.33c-21.23,86.5,46.74,200.59,142.14,135.07,35.77-34.06,37.35-77.09,39.94-121.57,9.52-65.9-172.15-46.41-182.09-13.51Z"/><path class="cls-6" d="m324.1,487.03c-8.88,31.09,19.57,28.29,50.37,15.29,49.96-21.08,137.32,26.87,147.72-7.79.67-49.47-177.17-40.69-198.09-7.51Z"/><path class="cls-8" d="m185.34,798.37c-3.42,31.8,166.73,56.17,181.17,43.79,31.66-17.92,12.38-78.94-26.36-86.85-20.23-7.89-43.36-10.94-55.34-4.28-21.67,12.91-87.39,19.84-99.47,47.34Z"/><path class="cls-11" d="m276.52,754.87c5.64-.74,41.92,15.02,34.69,25.9-9.03-9.55-25.06-22.59-34.69-25.9Z"/><path class="cls-11" d="m255.94,761.45c5.31-.38,32.6,14.38,26.96,24.15-6.88-8.69-19.09-20.83-26.96-24.15Z"/><path class="cls-11" d="m228.92,769.82c4.52-.42,29.52,12.17,24.41,20.61-6.27-7.48-17.41-17.85-24.41-20.61Z"/><path class="cls-11" d="m246.99,790.95c.42,6.42,12.59,6.42,13.01,0-.42-6.42-12.59-6.42-13.01,0Z"/><path class="cls-11" d="m276.72,786.13c.42,6.42,12.59,6.42,13.01,0-.42-6.42-12.59-6.42-13.01,0Z"/><path class="cls-11" d="m304.59,780.34c.42,6.42,12.59,6.42,13.01,0-.42-6.42-12.59-6.42-13.01,0Z"/><path class="cls-8" d="m679.31,801.27c3.42,31.8-166.73,56.17-181.17,43.79-31.66-17.92-12.38-78.94,26.36-86.85,20.23-7.89,43.36-10.94,55.34-4.28,21.67,12.91,87.39,19.84,99.47,47.34Z"/><path class="cls-11" d="m588.13,757.76c-5.64-.74-41.92,15.02-34.69,25.9,9.03-9.55,25.06-22.59,34.69-25.9Z"/><path class="cls-11" d="m608.7,764.34c-5.31-.38-32.6,14.38-26.96,24.15,6.88-8.69,19.09-20.83,26.96-24.15Z"/><path class="cls-11" d="m635.72,772.71c-4.52-.42-29.52,12.17-24.41,20.61,6.27-7.48,17.41-17.85,24.41-20.61Z"/><path class="cls-11" d="m617.66,793.84c-.42,6.42-12.59,6.42-13.01,0,.42-6.42,12.59-6.42,13.01,0Z"/><path class="cls-11" d="m587.93,789.02c-.42,6.42-12.59,6.42-13.01,0,.42-6.42,12.59-6.42,13.01,0Z"/><path class="cls-11" d="m560.06,783.23c-.42,6.42-12.59,6.42-13.01,0,.42-6.42,12.59-6.42,13.01,0Z"/><path class="cls-2" d="m231.19,377.57c-33.65,10.94-38.16,152.77-37.53,177.64-5.95,38.22,29.9,71.17,64.9,52.02,7.71-6.56,8.9-7.62,11.19-16.48.86-3.26-7.46-12.12-3.31-14.02,3-.61,4,2.59,5.34,5.49,4.48,10.62,15.91-1.22,17.78-9.22,9.46-27.16-17.66-47.89-4.24-76.01,6.42-27.27,32.46-47.12,29.02-75.08-7.42-27.92-58.51-49.75-83.15-44.33Z"/><path class="cls-2" d="m592.58,377.54c33.65,10.94,38.16,152.77,37.53,177.64,5.95,38.22-29.9,71.17-64.9,52.02-7.71-6.56-8.9-7.62-11.19-16.48-.86-3.26,7.46-12.12,3.31-14.02-3-.61-4,2.59-5.34,5.49-4.48,10.62-15.91-1.22-17.78-9.22-9.46-27.16,17.66-47.89,4.24-76.01-6.42-27.27-32.46-47.12-29.02-75.08,7.42-27.92,58.51-49.75,83.15-44.33Z"/><path class="cls-1" d="m398.16,149.53c-2.33-2.1,20.73-46.63,64.36-67.73,1.81-.87,24.95-8.57,25.76-7.26,1.15,1.85-19.41,10.49-43.41,29.45-35.7,28.21-45.43,46.69-46.71,45.54Z"/><path class="cls-1" d="m453.3,107.54c-25.42,17.49-48.69,44.28-47.45,46.03,1.42,2,28.57-25.22,47.45-38.57,13.1-9.27,49.92-26.63,48.66-28.62-1.08-1.71-25.88,5.47-48.66,21.15Z"/><path class="cls-1" d="m420.24,150c.3,1.32,15.8-15.57,40.87-25.27,27.03-10.46,43.73-5.19,43.73-6.71,0-1.64-19.17-11.2-42.7-2.26-23.39,8.88-42.24,32.77-41.9,34.25Z"/><path class="cls-3" d="m365.98,568.54s-.01-.04-.01-.04c-.49-1.74,3.85-4.08,15.73-11.04,6.73-3.95,8.37-4.98,11.15-4.82,1.73.1,3.2.61,5.57,0,1.02-.26,4.63-1.19,5.57-3.86.45-1.28.07-2.34.99-3.54.61-.79,1.39-1.12,1.8-1.29,2.11-.84,17.15-6.23,37.82-13.51.35-.13.87-.26,1.19,0,.78.63-.65,2.71,0,4.82.37,1.19,1.49,2.36,2.79,2.89,2.37.98,3.94-1.16,6.5-.96,1.91.15,2.56,1.44,6.5,5.79,6.2,6.84,10.32,9.99,9.38,11.93,0,0,.01.12-.07.13-34.8,4.5-70.12,9-104.92,13.5Z"/><path class="cls-3" d="m365.92,568.89c.3,8.09.61,16.18.91,24.27,6.11-.41,11.16-1.21,14.86-1.93,5.68-1.11,8.53-1.66,11.15-2.89,6.26-2.95,7.75-6.39,11.15-5.79,3.02.54,3.04,3.47,6.5,5.79,2.63,1.76,4.87,1.59,17.65,0,15.2-1.89,17.96-2.39,19.51-4.82.28-.44,1.79-2.94,4.64-4.82,1.86-1.22,2.55-1.05,2.79-.96,1.71.6.76,3.89,2.79,5.79,1.4,1.32,3.41,1.2,7.43.96,2.19-.13,3.97-.46,5.18-.74.17-9.52.35-19.04.52-28.57,0-.08-.05-.13-.12-.13-34.99,4.61-69.98,9.23-104.97,13.84Z"/><path class="cls-4" d="m434.57,540.98c-.07,1.57,3.37,1.36,5.2,1.45s.42-1.55.49-3.12,1.58-2.5-.25-2.58-5.37,2.68-5.44,4.25Z"/><path class="cls-4" d="m451.37,547.81c-.07,1.57-6.15,2.78-4.64,3.86,2.67,1.91,11.11-.21,10.22-3.86-.37-1.53-5.6-4.74-7.43-4.82s1.92,3.25,1.86,4.82Z"/><path class="cls-4" d="m429.07,556.5c-.07,1.57,3.74-2.98,5.57-2.89s1.79.61,1.86-.96.9-2.81-.93-2.89-6.44,5.18-6.5,6.75Z"/><path class="cls-4" d="m416.07,551.67c2.79,0,2.81-2.98,4.64-2.89s3.65-1.32,3.72-2.89-4.64-1.93-7.43,0c-1.52,1.06-2.45,5.79-.93,5.79Z"/><path class="cls-4" d="m402.39,558.25c-.06,1.38,2.6,1.68,3.95,1.24,2.22-.73,2.89-2.74,2.95-4.12.06-1.38-2.85.94-4.24.88s-2.59.62-2.65,2Z"/><path class="cls-4" d="m383.55,561.73c.46,1.38,2.74-.21,4.15-.06s3.8-.11,3.7-1.44c-.18-2.35-2.72-3.54-3.43-1.87-.57,1.35-4.84,2.13-4.42,3.37Z"/><path class="cls-4" d="m371.72,577.09c-3.03.63-.21,2.48,1.62,2.56s10.15-3.25,10.22-4.82-6.53-2.81-8.36-2.89.59,4.3-3.47,5.16Z"/><path class="cls-4" d="m384.71,585.19c-.07,1.71,1.64,1.39,2.54,1.43s.25-1.69.32-3.39c.07-1.71.85-2.75-.06-2.79s-2.73,3.04-2.8,4.75Z"/><path class="cls-4" d="m393.73,570.79c-1.25-.89-1.12,1.13,3.31,4.41,1.49,1.1,1.71,1.08,2.62-.18,1.68-2.31,2.69-4.46.87-4.22-2.72.36-.87,4.22-6.81,0Z"/><path class="cls-4" d="m409.34,575.11c.8,1.23,1.78,1.75,2.79,3.21,1.01,1.45,2.47,1.37,3.55.55s-.51-1.94-1.52-3.39c-1.01-1.45-6.9-3.59-4.82-.37Z"/><path class="cls-4" d="m420.98,568.74c-.06,1.35,2.15-.29,3.68-.29,3.1,0,8.13-1.34,3.49-2.31-1.25-.26-1.09-1.11-2.62-1.06-2.96.1-4.49,2.31-4.55,3.66Z"/><path class="cls-4" d="m430.24,580.95c1.38.66,4.24,3.07,5.2,1.45,1.06-1.78-1.79-1.17-1.73-2.74s1.82-4.59,0-4.82c-3.36-.43-9.68,3.14-3.47,6.12Z"/><path class="cls-4" d="m443.25,567.44c1.4.6.71,3.45,2.55,3.53s7.37-4.22,7.43-5.79-2.71-1.91-4.54-1.99-8.47,2.95-5.44,4.25Z"/><path class="cls-4" d="m460.99,571.2c-1,1.94.66,2.29,1.43,2.72s1.14-1.84,2.15-3.78,2.25-2.82,1.48-3.24-4.06,2.37-5.06,4.31Z"/><ellipse class="cls-1" cx="354.29" cy="267.53" rx="43.2" ry="44.86"/><ellipse class="cls-13" cx="367.91" cy="280.62" rx="22.67" ry="26.67" transform="translate(-76.32 151.14) rotate(-21.08)"/><ellipse class="cls-13" cx="334.32" cy="259.81" rx="5.7" ry="5.19" transform="translate(-66.18 397.19) rotate(-56.79)"/><ellipse class="cls-13" cx="346.27" cy="247.23" rx="5.7" ry="5.19" transform="translate(-50.25 401.5) rotate(-56.79)"/><ellipse class="cls-1" cx="496.75" cy="267.59" rx="43.2" ry="44.86"/><ellipse class="cls-13" cx="483.12" cy="280.68" rx="26.67" ry="22.67" transform="translate(47.44 630.49) rotate(-68.92)"/><ellipse class="cls-13" cx="516.72" cy="259.87" rx="5.19" ry="5.7" transform="translate(-57.93 325.51) rotate(-33.21)"/><ellipse class="cls-13" cx="504.77" cy="247.29" rx="5.19" ry="5.7" transform="translate(-52.99 316.91) rotate(-33.21)"/><path d="m425.44,333.14c1.51.18,4.18,11.16,0,19.88-5.79,12.08-21.88,13.87-31.36,12.56-12.99-1.8-21.8-15.15-21.2-17,.54-1.68,9.37,5.65,13.01,7.72,6.41,3.64,8.66,2.89,13.01,2.89,1.86,0,10.37,1.12,17.33-5.12,8.46-7.58,7.53-21.13,9.22-20.93Z"/><path d="m425.34,333.33c-1.51.18-4.18,11.16,0,19.88,5.79,12.08,21.88,13.87,31.36,12.56,12.99-1.8,21.8-15.15,21.2-17-.54-1.68-9.37,5.65-13.01,7.72-6.41,3.64-8.66,2.89-13.01,2.89-1.86,0-10.37,1.12-17.33-5.12-8.46-7.58-7.53-21.13-9.22-20.93"/><path class="cls-9" d="m397.95,306.12c5.48-13.92,48.66-14.58,54.81,0,4.21,9.97-6.73,32.27-25.08,33.77-20.33,1.66-33.77-23.5-29.73-33.77Z"/><ellipse class="cls-7" cx="363.11" cy="309.98" rx="16.72" ry="13.99"/><ellipse class="cls-7" cx="488.53" cy="309.98" rx="16.72" ry="13.99"/><path class="cls-15" d="m334.2,401.79c-1.44,4.6,36.09,35.38,81.98,34.57,44.59-.79,80.24-31.11,78.73-35.72-1.36-4.14-32.13,14.34-81.66,14.43-48.1.08-77.81-17.25-79.05-13.28Z"/><path class="cls-15" d="m673.98,279.82c.55,1.97,28.15.46,55.01-15.29,34.93-20.49,51.83-55.23,50.34-56.54-1.25-1.09-15.01,21.85-45.89,43.06-32.01,22-60.02,26.75-59.46,28.76Z"/><path class="cls-15" d="m175.47,280.08c-.55,1.97-28.15.46-55.01-15.29-34.93-20.49-51.83-55.23-50.34-56.54,1.25-1.09,15.01,21.85,45.89,43.06,32.01,22,60.02,26.75,59.46,28.76Z"/><path class="cls-15" d="m206.58,577.24c1.23-.59,3.56,8.23,12.08,13.51,9.48,5.88,21.3,9.67,21.37,10.61.09,1.19-17.28,1.23-26.94-6.75-7-5.78-7.81-16.74-6.5-17.37Z"/><path class="cls-15" d="m618.24,576.9c-1.23-.59-3.56,8.23-12.08,13.51-9.48,5.88-21.3,9.67-21.37,10.61-.09,1.19,17.28,1.23,26.94-6.75,7-5.78,7.81-16.74,6.5-17.37Z"/><path class="cls-15" d="m717.52,575.31c-4.38-1.78,25.23-47.83,28.33-56.44,3.57-9.9-1.93-19.1,2.79-17.37,4.09,1.5,3.82,11.85,1.86,19.3-2.92,11.09-28.14,56.48-32.98,54.51Z"/><path class="cls-15" d="m850.88,313.41c-1.45-2.18,5.67-4.48,9.61-7.49,4.53-3.46,4.76-9.41,6.38-7.15,1.4,1.96-1.77,6.66-4.85,9.48-4.59,4.22-9.53,7.57-11.13,5.16Z"/><path class="cls-14" d="m319.92,829.06c.09-1.96,24.24,3.65,39.02-11.58,7.16-7.38,8.57-16,11.15-15.44,3.31.73,6.16,16.02,0,25.09-11.64,17.12-50.27,4.41-50.17,1.93Z"/><path class="cls-14" d="m542.57,833.98c.17-1.95-24.5.28-37.2-16.85-6.16-8.3-6.45-17.04-9.08-16.84-3.37.26-8.15,15.03-3.2,24.86,9.35,18.57,49.27,11.3,49.48,8.82Z"/><path class="cls-16" d="m193.26,643.31c-7.9-.28,11.78,40.07,44.94,67.94,18.04,15.17,36.63,30.42,36.62,22.88,0-2.26-15.54-8.35-41.59-39.18-20.87-24.7-38.73-51.6-39.97-51.65Z"/><path class="cls-16" d="m644.89,642.95c7.9-.28-11.78,40.07-44.94,67.94-18.04,15.17-36.63,30.42-36.62,22.88,0-2.26,15.54-8.35,41.59-39.18,20.87-24.7,38.73-51.6,39.97-51.65Z"/></svg>