<?xml version="1.0" encoding="UTF-8"?><svg id="Layer_1" xmlns="http://www.w3.org/2000/svg" width="255" height="270" viewBox="0 0 255 270"><defs><style>.cls-1{fill:#896b56;opacity:.69;stroke:#896b56;}.cls-1,.cls-2,.cls-3,.cls-4,.cls-5{stroke-miterlimit:10;}.cls-1,.cls-2,.cls-3,.cls-5{stroke-width:2px;}.cls-6{fill:#fff;}.cls-7{fill:#7f4040;}.cls-8{fill:#ceb3a1;}.cls-9,.cls-3{fill:#b29a87;}.cls-10{fill:#ddc6b3;}.cls-11{fill:#725a49;}.cls-2{fill:#664d3c;stroke:#514035;}.cls-3{stroke:#664d3c;}.cls-4{fill:#ffb8b8;stroke:#f78181;}.cls-5{stroke:#545454;}</style></defs><path class="cls-2" d="m38.47,125.55c-1.98-1.26-8.55-5.69-16.14-11.56-9.59-7.42-14.39-11.13-16.68-15.07-6.98-12.03-2.04-25.65-1.08-28.14,3.38-8.73,9.4-14,15.6-19.09C46.38,30.18,59.49,19.42,80.43,11.5c8.37-3.16,24.11-8.97,45.73-10.05,9.02-.45,25.01-1.11,44.11,5.02,6.91,2.22,19.15,6.27,31.2,16.08,4.45,3.62,10.67,11.96,23.13,28.64,1.16,1.56,10,13.45,19.37,29.14,2.21,3.7,5.56,9.47,7.53,17.58,1.13,4.63,2.14,8.98,1.08,14.57-.39,2.05-2.03,9.4-8.61,15.58-5.29,4.96-11.03,6.61-19.9,9.04-10.33,2.83-18.58,3.43-19.9,3.52-6.97.47-129.19,8.14-165.69-15.07Z"/><path class="cls-3" d="m62.14,139.12c-2.31-.74-7.82-2.59-13.99-6.53-6.55-4.19-16.71-10.67-18.83-22.11-2.18-11.76,5.57-21.07,6.46-22.11,7.44-8.66,18.63-10.77,26.9-12.06,53.46-8.33,96.39.24,112.97,4.02,15.15,3.46,30.91,9.11,36.58,18.59,5.25,8.77,5.02,19.26,4.84,22.11-.34,5.31-2.23,9.64-4.84,13.57-5.87,8.81-22.99,9.42-32.28,10.05-52.41,3.54-90.57,3.21-117.81-5.53Z"/><path class="cls-1" d="m30.4,100.43c-.37.17,1.09,13.25,10.76,21.1,11.35,9.21,26.27,8.9,26.36,8.54.09-.35-13.3-.58-24.75-9.55-10.11-7.92-12.01-20.27-12.37-20.1Z"/><path class="cls-1" d="m46,81.84c-.5.03-2.55,11.8,5.6,23.52,9.57,13.75,27.02,19.38,27.27,19.05.24-.31-15.23-5.87-25-19.42-8.63-11.97-7.38-23.18-7.87-23.15Z"/><path class="cls-1" d="m73.43,75.81c-.5.03-2.02,11.52,6.12,23.23,9.57,13.75,27.02,19.38,27.27,19.05.24-.31-15.23-5.87-25-19.42-8.63-11.97-7.9-22.89-8.39-22.87Z"/><path class="cls-1" d="m216.53,117.51c.3.25-4.98,9.09-16.15,14.13-12.56,5.66-25.77,2.18-25.77,1.82,0-.35,12.06,2.3,24.69-3.22,11.5-5.03,16.93-12.97,17.22-12.72Z"/><path class="cls-1" d="m157.89,77.82c.54,0,1.54,12.02-6.61,23.73-9.57,13.75-27.02,19.38-27.27,19.05-.24-.31,15.23-5.87,25-19.42,8.63-11.97,8.39-23.37,8.88-23.37Z"/><path class="cls-1" d="m195.01,87.37c.5.07-.78,10.79-10.14,21.68-10.99,12.79-28.96,16.77-29.17,16.42-.21-.33,15.78-4.42,26.95-16.99,9.87-11.1,11.88-21.18,12.36-21.11Z"/><path class="cls-1" d="m119.16,73.8c-.27-.51-3,6.51-3.77,13.57-1.09,9.99,4.67,18.15,5.38,18.09.57-.05-3.45-6.21-2.69-18.09.59-9.19,1.61-12.56,1.08-13.57Z"/><path class="cls-10" d="m102.88,268.82c-19.61,0-35.62-6.52-46.3-18.85-10.68-12.33-15-29.88-12.18-49.4,1.72-11.88,6.26-29.28,9.67-39.62,12.81-38.91,33.4-57.83,62.96-57.83,5.13,0,10.6.58,16.27,1.74,1.19.24,4.4,1.13,5.4,1.53,40.38,15.79,41.76,32.83,45.09,74.01.97,11.99.46,34.47-.22,46.61-2.15,38.56-35.82,41.78-70.11,41.78h-5.21c-.9,0-2.76,0-3.83.02-.52,0-1.03.01-1.55.01Z"/><path class="cls-9" d="m117.03,102.12v2c5.06,0,10.46.58,16.07,1.72,1.13.23,4.29,1.11,5.24,1.48,19.53,7.64,29.88,15.32,35.7,26.52,5.62,10.81,6.99,24.77,8.76,46.64.97,11.94.45,34.36-.22,46.47-.98,17.53-8.75,29.01-23.77,35.07-13.17,5.32-29.62,5.76-45.35,5.76-1.23,0-2.44,0-3.63,0h-1.42s-.15,0-.15,0c-.86,0-2.72.01-3.85.03-.51,0-1.02.01-1.53.01-19.32,0-35.06-6.4-45.54-18.51-10.48-12.11-14.73-29.37-11.94-48.6,1.71-11.82,6.24-29.15,9.63-39.46,12.66-38.45,32.94-57.14,62.01-57.14v-2m0,0c-34.51,0-53.08,25.63-63.91,58.52-3.53,10.72-8.03,28.21-9.71,39.79-5.84,40.32,18.25,69.39,59.47,69.39.52,0,1.04,0,1.56-.01,1.07-.02,2.91-.03,3.81-.03.05,0,.1,0,.14,0,1.66,0,3.34,0,5.06,0,30.41,0,68.82-1.52,71.12-42.73.69-12.35,1.19-34.71.22-46.74-3.44-42.41-5.28-59.04-45.73-74.86-1.08-.42-4.36-1.33-5.57-1.58-5.86-1.19-11.34-1.76-16.47-1.76h0Z"/><ellipse class="cls-5" cx="95.04" cy="144.78" rx="17.81" ry="15.97" transform="translate(-77.46 160.23) rotate(-61.83)"/><ellipse class="cls-6" cx="88.43" cy="138.11" rx="12.97" ry="7.18" transform="translate(-74.12 116.38) rotate(-49.75)"/><ellipse class="cls-6" cx="93.45" cy="146.95" rx="1.92" ry="1.07" transform="translate(-66.88 78.97) rotate(-34.57)"/><ellipse class="cls-6" cx="88.24" cy="150.18" rx="1.42" ry=".73" transform="translate(-46.06 39.26) rotate(-20.01)"/><ellipse class="cls-5" cx="149.52" cy="146.91" rx="17.81" ry="15.97" transform="translate(-50.57 209.37) rotate(-61.83)"/><ellipse class="cls-6" cx="142.91" cy="140.24" rx="12.97" ry="7.18" transform="translate(-56.46 158.72) rotate(-49.75)"/><ellipse class="cls-6" cx="147.92" cy="149.07" rx="1.92" ry="1.07" transform="translate(-58.47 110.26) rotate(-34.57)"/><ellipse class="cls-6" cx="142.72" cy="152.31" rx="1.42" ry=".73" transform="translate(-43.5 58.03) rotate(-20.01)"/><ellipse class="cls-4" cx="154.87" cy="162.61" rx="4.93" ry="6.22" transform="translate(-25.85 295.9) rotate(-82.81)"/><ellipse class="cls-4" cx="86.34" cy="160.23" rx="4.93" ry="6.22" transform="translate(-83.44 225.82) rotate(-82.81)"/><path class="cls-7" d="m131.24,166.83c.41.14-.59,2.21-.46,5.51.16,4.14,1.95,6.5,1.6,6.67-.44.21-4.03-3.23-3.71-7.32.22-2.73,2.11-5,2.56-4.85Z"/><path class="cls-7" d="m106.39,171.39c-.15,1.31,8.13-3.69,13.73-3.02,5.05.61,10.55,7.47,10.78,6.22.22-1.19-5.09-8.37-10.33-9.21-6.43-1.03-14.02,4.71-14.18,6Z"/><path class="cls-7" d="m107.99,163.77c-.43.03-.08,2.27-1.18,5.42-1.37,3.94-3.79,5.75-3.5,6,.37.32,4.83-2.07,5.72-6.09.6-2.68-.56-5.35-1.04-5.32Z"/><path class="cls-8" d="m82.04,261.2c-.87,1.17-15.25-6.05-24.75-18.09-15.01-19.02-7.29-57.28-5.92-57.28,1.19,0-.24,31.27,12.37,50.74,9.3,14.36,19.14,23.47,18.29,24.62Z"/><path class="cls-11" d="m34.7,82.85c-10.45,10.16-9.41,24.24-10.22,24.12-.92-.13-3.86-18.43,8.07-28.64,9.75-8.34,29.59-10.05,34.97-6.53.89.58-23.25,1.75-32.82,11.05Z"/><path class="cls-11" d="m219.76,104.45c5.06,12.98,0,24.53.54,24.62.86.13,11.47-18.86,2.15-32.15-6.45-9.2-21.08-13.81-21.52-13.57-.07.04-.09.1-.09.1-.33.78,5.66,4.77,6.55,5.42,7.53,5.53,11.73,13.94,12.37,15.58Z"/><path class="cls-11" d="m155.74,13.51c-.08,1.36,4.39,4.94,11.83,8.04,13.13,5.46,22.94,3.61,24.21,2.51,1.75-1.52-9.7-10.04-20.44-13.06-7.19-2.02-15.49.56-15.6,2.51Z"/><path class="cls-11" d="m187.48,33.11c3.37,2.81,10.37,1.42,10.74-.32.3-1.44-3.87-3.63-7.5-4.07-.79-.1-4.12-.5-4.85.87-.54,1.03.57,2.65,1.61,3.52Z"/></svg>