<?xml version="1.0" encoding="UTF-8"?><svg id="Layer_1" xmlns="http://www.w3.org/2000/svg" width="285" height="270" viewBox="0 0 285 270"><defs><style>.cls-1{stroke:#545454;}.cls-1,.cls-2,.cls-3,.cls-4,.cls-5,.cls-6{stroke-miterlimit:10;}.cls-1,.cls-4,.cls-5,.cls-6{stroke-width:3px;}.cls-7{fill:#f77c7c;}.cls-8{fill:#fff;}.cls-9,.cls-4{fill:#6f916b;}.cls-10,.cls-5{fill:#82a37f;}.cls-2{fill:#7f4040;stroke:#7c2a2a;}.cls-3{fill:#ffb8b8;stroke:#f78181;}.cls-4{stroke:#678263;}.cls-5{stroke:#6f916b;}.cls-6{fill:#ff9494;stroke:#d37a7a;}</style></defs><path class="cls-6" d="m3.94,158.38c9.23,68.02,61.12,114.71,151.01,109.61,89.89-5.09,149.64-73.02,118.57-163.55-31.06-90.53-78.29.72-140.05-55.69C71.71-7.65-5.29,90.37,3.94,158.38Z"/><path class="cls-5" d="m109.02,31.17c-1.35.36-1.45,2.07-.15,2.57,7.01,2.7,10.11,8.33,13.63,13.36,9.56,13.67,9.43,11.98,16.21,16.81.89.63.72,1.89-.31,2.32-4.77,1.98-10.59,6.51-14.4,13.45-6.52,11.86-13.48,20.57-16.13,25.82-.55,1.08.6,2.23,1.85,1.86,11.07-3.35,23.35-8.85,37.4-14.44,11.12-4.43,11.88-4.73,19.18-10.52.8-.64,2.06-.34,2.4.58,1.79,4.76,4.3,10.24,7.87,16.05,3.34,5.42,6.93,10.02,10.35,13.84,2.67,2.98,7.87,2.34,9.58-1.18,2.38-4.91,4.54-11.2,4.3-18.77-.27-8.49-.37-12.27-1.16-16.16-.16-.78.45-1.52,1.31-1.6,6.4-.61,14.24-3.31,23.71-3.63s22.4,1.21,29.19-.57c1.09-.28,1.47-1.51.69-2.25-4.27-4.09-13.75-11.81-16.08-13.8-17.23-14.7-52.32-7.67-61.01-5.34-.54.15-1.12,0-1.51-.37-4.5-4.35-16.12-12.29-37.79-19.4-9.75-3.2-21.66-.63-29.14,1.38Z"/><polygon class="cls-5" points="165.01 60.67 171.72 6.71 188.5 6.71 180.3 62.71 165.01 60.67"/><ellipse class="cls-4" cx="180.11" cy="6.88" rx="8.39" ry="5.26"/><polygon class="cls-10" points="165.94 58.8 165.2 61.52 179.74 63.22 180.11 60.16 165.94 58.8"/><path class="cls-9" d="m123.25,33.18c-.27.58,6.72,2.36,14.54,8.82,6.81,5.63,9.46,10.85,10.07,10.52.66-.35-1.4-7.07-7.08-12.22-7.2-6.52-17.21-7.8-17.53-7.13Z"/><path class="cls-9" d="m152.88,76.55c-.41-.49-11.52.72-14.65,4.33-3.75,4.33-17.61,13.76-17.04,14.23.51.42,8.22-2.61,12.61-6.81,6.13-5.88,19.54-11.21,19.08-11.76Z"/><path class="cls-9" d="m186.08,80.18c-.49.21,1.04,3.31,2.98,10.18,2.3,8.16,1.31,15.64,1.86,15.61.73-.04,3-10.31.75-16.97-1.71-5.05-5-9.07-5.59-8.82Z"/><path class="cls-9" d="m195.23,62.49c-.17-.65,6.49-3.4,14.35-4.39,15.9-1.99,30.85,5.72,30.01,5.81-1.69.18-17.33-3.38-27.66-3.04-14.13.46-16.5,2.39-16.7,1.62Z"/><ellipse class="cls-1" cx="99.59" cy="140.67" rx="28.49" ry="23.92" transform="translate(-70.74 114.29) rotate(-45.9)"/><ellipse class="cls-8" cx="91.52" cy="131.35" rx="19.76" ry="12.4" transform="translate(-63.47 91.27) rotate(-40.63)"/><ellipse class="cls-8" cx="111.31" cy="124.51" rx="2.55" ry="1.31" transform="translate(-20.63 226.89) rotate(-86.01)"/><ellipse class="cls-8" cx="110.24" cy="130.32" rx="1.75" ry="1" transform="translate(-50.33 188.24) rotate(-69.61)"/><ellipse class="cls-3" cx="86.96" cy="166.07" rx="6.26" ry="9.63" transform="translate(-97.03 201.94) rotate(-73.4)"/><ellipse class="cls-1" cx="181.32" cy="163.33" rx="28.49" ry="23.92" transform="translate(-62.16 179.87) rotate(-45.9)"/><ellipse class="cls-8" cx="173.25" cy="154.01" rx="19.76" ry="12.4" transform="translate(-58.53 149.96) rotate(-40.63)"/><ellipse class="cls-8" cx="193.04" cy="147.17" rx="2.55" ry="1.31" transform="translate(32.81 329.51) rotate(-86.01)"/><ellipse class="cls-8" cx="191.97" cy="152.98" rx="1.75" ry="1" transform="translate(-18.32 279.62) rotate(-69.61)"/><ellipse class="cls-3" cx="168.68" cy="188.73" rx="6.26" ry="9.63" transform="translate(-60.38 296.45) rotate(-73.4)"/><path class="cls-2" d="m100.22,182.1c-.08-3.69,10.24-6.4,10.82-6.58,10.52-3.29,31.47,3.06,35.64,11.83,2.98,6.27,3.41,9.79.6,11.92-2.88,2.17-12.71-5.93-23.89-9.82-11.4-3.97-23.08-3.81-23.16-7.35Z"/><path class="cls-3" d="m124.17,182.12c6.09,1.15,7.85,9.66,6.99,10.19-.15.09-.6-.09-1.49-.45-.83-.34-1.12-.59-1.85-.92-.42-.19-1.19-.49-2.74-1.1-1.85-.73-1.88-.74-2.13-.83-1.18-.41-2.12-.66-2.74-.83-1.55-.41-1.96-.42-3.35-.83-1.37-.4-2.05-.6-2.13-.83-.38-1.12,4.61-5.31,9.43-4.41Z"/><path class="cls-7" d="m107.82,48c.62,2.46-19.63,3.8-41.07,18.95-25.91,18.31-44.06,56.09-46.98,54.97-3.26-1.25,11.28-46.7,34.73-63.74,21.77-15.82,52.57-13.16,53.32-10.18Z"/><path class="cls-7" d="m262.05,192.37c-1.12-.56-7.12,11.64-21.24,25.91-18.91,19.11-36.77,26.18-36.06,27.27.79,1.21,24.33-5.55,41.3-24.03,12.24-13.33,17.2-28.55,16-29.15Z"/></svg>